<svg width="202" height="104" viewBox="0 0 202 104" fill="none" xmlns="http://www.w3.org/2000/svg">
<path d="M65.8974 86.7733H35.9697V80.5333H47.2662V66.88H16V60.5333L45.2853 17.1733H54.6009V60.5333H65.8974V66.88H54.6009V80.5333H65.8974V86.7733ZM47.2662 60.5333V25.8133L23.763 60.5333H47.2662Z" fill="black" fill-opacity="0.16"/>
<path d="M81.6192 52.0533C81.6192 57.2089 82.2439 62.0444 83.4931 66.56L116.205 32.16C114.492 28.96 112.368 26.5067 109.834 24.8C107.335 23.0933 104.409 22.24 101.054 22.24C94.7717 22.24 89.9533 24.9067 86.5983 30.24C83.2789 35.5378 81.6192 42.8089 81.6192 52.0533ZM86.0094 72.48C89.5429 78.7378 94.5576 81.8667 101.054 81.8667C107.193 81.8667 111.957 79.2178 115.348 73.92C118.739 68.5867 120.434 61.2978 120.434 52.0533C120.434 49.4933 120.274 47.0756 119.952 44.8C119.631 42.4889 119.185 40.2844 118.614 38.1867L86.0094 72.48ZM74.2845 52.0533C74.2845 47.3956 74.7842 42.8978 75.7836 38.56C76.783 34.2222 78.3356 30.3822 80.4414 27.04C82.5472 23.6978 85.2955 21.0311 88.6863 19.04C92.1127 17.0133 96.2351 16 101.054 16C105.872 16 109.977 17.0133 113.367 19.04C116.794 21.0311 119.578 23.6978 121.719 27.04C123.861 30.3822 125.413 34.2222 126.377 38.56C127.341 42.8978 127.823 47.3956 127.823 52.0533C127.823 56.7111 127.341 61.2089 126.377 65.5467C125.413 69.8844 123.879 73.7067 121.773 77.0133C119.667 80.32 116.901 82.9867 113.474 85.0133C110.084 87.0044 105.943 88 101.054 88C96.1637 88 92.0056 87.0044 88.5792 85.0133C85.1884 82.9867 82.4223 80.32 80.2808 77.0133C78.175 73.7067 76.6581 69.8844 75.7301 65.5467C74.7664 61.2089 74.2845 56.7111 74.2845 52.0533Z" fill="black" fill-opacity="0.16"/>
<path d="M186 86.7733H156.072V80.5333H167.369V66.88H136.103V60.5333L165.388 17.1733H174.703V60.5333H186V66.88H174.703V80.5333H186V86.7733ZM167.369 60.5333V25.8133L143.866 60.5333H167.369Z" fill="black" fill-opacity="0.16"/>
</svg>
