<svg width="56" height="56" viewBox="0 0 56 56" fill="none" xmlns="http://www.w3.org/2000/svg">
<path fill-rule="evenodd" clip-rule="evenodd" d="M30 2C30 0.89543 29.1045 0 28 0C26.8954 0 26 0.89543 26 2V9C26 10.1046 26.8954 11 28 11C29.1045 11 30 10.1046 30 9V2ZM48.3996 16.8C47.4996 15.1 45.7996 14 43.8996 14H12.0996C10.1996 14 8.49957 15.1 7.59957 16.8L1.89162 28.2166C1.30614 29.3876 1.01701 30.6844 1.0496 31.9933L1.09957 34L1.39957 45.6C1.69957 48.6 4.29957 51 7.39957 51H48.5996C51.6996 51 54.1996 48.7 54.5996 45.6L54.8996 34L54.9499 31.9943C54.9828 30.6848 54.6936 29.3873 54.1078 28.2157L48.3996 16.8ZM11.3996 19.7C11.8996 18.6 12.9996 18 14.0996 18H41.8996C42.9996 18 44.0996 18.6 44.5996 19.7C44.9609 20.4949 47.7768 26.5645 49.3109 29.87C49.7723 30.8643 49.0455 32 47.9494 32H41.0996C38.7996 32 36.7996 33.5 36.2996 35.8C35.6996 38.3 33.3996 40 30.8996 40H25.1996C22.5996 40 20.3996 38.2 19.7996 35.8C19.2996 33.6 17.2996 32 14.9996 32H8.04793C6.95224 32 6.22627 30.8634 6.68696 29.8693L11.3996 19.7ZM12.1111 3.61093C12.8922 2.82988 14.1585 2.82988 14.9396 3.61093L18.9135 7.58487C19.6946 8.36592 19.6946 9.63225 18.9135 10.4133C18.1325 11.1943 16.8661 11.1943 16.0851 10.4133L12.1111 6.43936C11.3301 5.65831 11.3301 4.39198 12.1111 3.61093ZM43.8888 6.43936C44.6698 5.65831 44.6698 4.39198 43.8888 3.61093C43.1077 2.82988 41.8414 2.82988 41.0604 3.61093L37.0864 7.58487C36.3054 8.36592 36.3054 9.63225 37.0864 10.4133C37.8675 11.1943 39.1338 11.1943 39.9148 10.4133L43.8888 6.43936Z" fill="black" fill-opacity="0.1"/>
</svg>
